<?xml version="1.0" encoding="UTF-8" standalone="no"?>
<!-- Created with Inkscape (http://www.inkscape.org/) -->

<svg
   width="47"
   height="47"
   viewBox="0 0 12.435416 12.435417"
   version="1.1"
   id="svgAdd"
   xmlns="http://www.w3.org/2000/svg"
   xmlns:svg="http://www.w3.org/2000/svg">
  <defs
     id="defs1">
    <clipPath
       id="clipAdd">
      <rect
         x="559"
         y="147"
         width="47"
         height="47"
         id="rect1" />
    </clipPath>
  </defs>
  <g
     id="layer1">
    <g
       clip-path="url(#clipAdd)"
       transform="matrix(0.26458333,0,0,0.26458333,-147.85741,-38.881195)"
       id="g1">
      <path
         d="m 583.949,169.035 h 11.742 v 2.937 h -11.742 v 11.75 h -2.935 v -11.75 h -11.742 v -2.937 h 11.742 v -11.75 h 2.935 z m 15.141,18.082 c -9.171,9.177 -24.04,9.178 -33.211,0.001 -9.171,-9.178 -9.172,-24.057 -10e-4,-33.235 9.17,-9.177 24.04,-9.178 33.211,-0.001 0,0.001 0,0.001 10e-4,0.001 9.17,9.117 9.22,23.947 0.109,33.124 -0.036,0.037 -0.073,0.073 -0.109,0.11 z m -2.048,-31.158 c -8.025,-8.03 -21.036,-8.029 -29.06,0.002 -8.025,8.03 -8.024,21.05 0.002,29.08 8.024,8.029 21.033,8.029 29.058,0 8.024,-7.928 8.108,-20.864 0.186,-28.895 -0.062,-0.063 -0.124,-0.125 -0.186,-0.187 z"
         fill-rule="evenodd"
         id="path1" />
    </g>
  </g>
</svg>
