<svg width="353" height="367" viewBox="0 0 353 367" xmlns="http://www.w3.org/2000/svg" xmlns:xlink="http://www.w3.org/1999/xlink" xml:space="preserve" overflow="hidden"><defs><clipPath id="clipBack"><rect x="1149" y="1484" width="353" height="367"/></clipPath></defs><g clip-path="url(#clipBack)" transform="translate(-1149 -1484)"><path d="M1354.96 1847.99C1362.87 1846.62 1370.68 1844.71 1378.35 1842.27 1451.76 1817.78 1501.65 1747.14 1502 1667.23L1502 1667.23 1502 1667.23C1501.62 1578.08 1439.76 1501.98 1355.06 1486.46 1258.45 1470 1167.26 1537.81 1151.37 1637.94 1137.16 1727.45 1188.13 1814.31 1271.35 1842.43 1279.01 1844.86 1286.83 1846.77 1294.74 1848.14 1314.72 1851.95 1335.22 1851.95 1355.21 1848.14ZM1169.61 1667.12C1169.61 1578.34 1239.06 1506.37 1324.73 1506.37 1410.39 1506.37 1479.84 1578.34 1479.84 1667.12 1479.84 1755.91 1410.39 1827.88 1324.73 1827.88 1239.09 1827.79 1169.69 1755.87 1169.61 1667.12ZM1313.3 1667.12 1367.47 1610.99 1351.81 1594.76 1281.98 1667.17 1351.81 1739.44 1367.47 1723.21 1313.3 1667.07Z" fill="#2D2D2D" fill-rule="evenodd"/></g></svg>