<?xml version="1.0" encoding="utf-8"?>
<!-- Svg Vector Icons : http://www.onlinewebfonts.com/icon -->
<!DOCTYPE svg PUBLIC "-//W3C//DTD SVG 1.1//EN" "http://www.w3.org/Graphics/SVG/1.1/DTD/svg11.dtd">
<svg version="1.1" xmlns="http://www.w3.org/2000/svg" xmlns:xlink="http://www.w3.org/1999/xlink" x="0px" y="0px" width="256" height="256" viewBox="0 0 256 256" enable-background="new 0 0 256 256" xml:space="preserve">
<metadata> Svg Vector Icons : http://www.onlinewebfonts.com/icon </metadata>
<g><g><path fill="#000000" d="M90.4,154.8H69v21.4h21.5V154.8L90.4,154.8z M90.4,192.3H69v21.5h21.5V192.3L90.4,192.3z M90.4,117.3H69v21.5h21.5V117.3L90.4,117.3z M58.3,192.3H36.8v21.5h21.5V192.3L58.3,192.3z M235.3,85.1H20.7V52.9c0-5.9,4.8-10.7,10.7-10.7h21.5v16.1c0,2.9,2.4,5.4,5.4,5.4c3,0,5.4-2.4,5.4-5.4V42.2h128.7v16.1c0,2.9,2.4,5.4,5.4,5.4s5.4-2.4,5.4-5.4V42.2h21.5c5.9,0,10.7,4.8,10.7,10.7L235.3,85.1L235.3,85.1z M235.3,224.5c0,5.9-4.8,10.7-10.7,10.7H31.5c-5.9,0-10.7-4.8-10.7-10.7V95.8h214.5V224.5L235.3,224.5z M224.5,31.5h-21.5V15.4c0-3-2.4-5.4-5.4-5.4c-3,0-5.4,2.4-5.4,5.4v16.1H63.6V15.4c0-3-2.4-5.4-5.4-5.4s-5.4,2.4-5.4,5.4v16.1H31.5C19.6,31.5,10,41.1,10,52.9v171.6c0,11.8,9.6,21.5,21.5,21.5h193.1c11.8,0,21.5-9.6,21.5-21.5V52.9C246,41.1,236.4,31.5,224.5,31.5L224.5,31.5z M58.3,117.3H36.8v21.5h21.5V117.3L58.3,117.3z M58.3,154.8H36.8v21.4h21.5V154.8L58.3,154.8z M122.6,192.3h-21.5v21.5h21.5V192.3L122.6,192.3z M122.6,117.3h-21.5v21.5h21.5V117.3L122.6,117.3z M122.6,154.8h-21.5v21.4h21.5V154.8L122.6,154.8z M219.2,154.8h-21.5v21.4h21.5V154.8L219.2,154.8z M187,154.8h-21.5v21.4H187V154.8L187,154.8z M219.2,117.3h-21.5v21.5h21.5V117.3L219.2,117.3z M187,117.3h-21.5v21.5H187V117.3L187,117.3z M154.8,192.3h-21.5v21.5h21.5V192.3L154.8,192.3z M154.8,117.3h-21.5v21.5h21.5V117.3L154.8,117.3z M154.8,154.8h-21.5v21.4h21.5V154.8L154.8,154.8z"/></g></g>
</svg>