<svg width="416" height="418" viewBox="0 0 416 418" xmlns="http://www.w3.org/2000/svg" xmlns:xlink="http://www.w3.org/1999/xlink" xml:space="preserve" overflow="hidden"><defs><clipPath id="clipDelete"><rect x="381" y="820" width="416" height="418"/></clipPath></defs><g clip-path="url(#clipDelete)" transform="translate(-381 -820)"><path d="M589 820C474.125 820 381 913.573 381 1029 381 1144.43 474.125 1238 589 1238 703.875 1238 797 1144.43 797 1029 797 913.573 703.875 820 589 820ZM589 1211.88C488.484 1211.88 407 1130 407 1029 407 928 488.484 846.125 589 846.125 689.516 846.125 771.001 928 771.001 1029 770.905 1129.96 689.476 1211.78 589 1211.88ZM654 945.226 589 1010.54 524 945.226 505.627 963.745 570.627 1029.06 505.627 1094.37 524 1112.83 589 1047.4 654 1112.72 672.374 1094.25 607.374 1029.06 672.374 963.745Z" fill="#2D2D2D" fill-rule="evenodd"/></g></svg>