<svg width="297" height="339" viewBox="0 0 297 339" xmlns="http://www.w3.org/2000/svg" xmlns:xlink="http://www.w3.org/1999/xlink" xml:space="preserve" overflow="hidden"><defs><clipPath id="clipDLTemplate"><rect x="1770" y="233" width="297" height="339"/></clipPath></defs><g clip-path="url(#clipDLTemplate)" transform="translate(-1770 -233)"><path d="M2063.8 323.871 1969.62 235.966C1967.59 234.073 1964.8 233.005 1961.91 233L1780.97 233C1774.92 233.024 1770 237.591 1770 243.217L1770 561.783C1770 567.41 1774.92 571.972 1780.97 572L2056.03 572C2062.08 572 2067 567.447 2067 561.83 2067 561.816 2067 561.797 2067 561.783L2067 331.075C2067 328.377 2065.83 325.788 2063.8 323.871ZM1972.82 267.889 2029.63 320.858 1972.82 320.858ZM1791.88 551.566 1791.88 253.435 1950.94 253.435 1950.94 341.292 2045.12 341.292 2045.12 551.566ZM1908.04 380.041 1908.04 483.625 1877.58 455.61C1873.57 451.815 1866.97 451.768 1862.86 455.511 1862.81 455.544 1862.81 455.577 1862.75 455.61 1858.64 459.391 1858.64 465.53 1862.7 469.326 1862.75 469.34 1862.75 469.349 1862.75 469.359L1918.3 520.868 1973.84 469.359C1977.95 465.564 1977.95 459.405 1973.84 455.61 1969.73 451.815 1963.13 451.815 1959.01 455.61L1928.55 483.625 1928.55 380.041Z" fill="#2D2D2D" fill-rule="evenodd"/></g></svg>