<svg width="440" height="301" xmlns="http://www.w3.org/2000/svg"
    xmlns:xlink="http://www.w3.org/1999/xlink" xml:space="preserve" overflow="hidden"
    viewBox="0 0 440 301">
    <g transform="translate(-2418 -232)"><path d="M2829.19 233.5 2446.81 233.5C2431.73 233.5 2419.5 243.031 2419.5 254.786L2419.5 510.215C2419.53 521.96 2431.74 531.477 2446.81 531.501L2829.19 531.501C2844.27 531.501 2856.5 521.969 2856.5 510.215L2856.5 254.786C2856.54 243.055 2844.36 233.528 2829.31 233.5 2829.27 233.5 2829.23 233.5 2829.19 233.5ZM2624.34 510.215 2446.81 510.215 2446.81 445.743 2624.34 445.743ZM2624.34 424.646 2446.81 424.646 2446.81 341.584 2624.34 341.584ZM2624.34 320.583 2446.81 320.583 2446.81 254.596 2624.34 254.596ZM2829.19 510.309 2651.66 510.309 2651.66 445.743 2829.19 445.743ZM2829.19 424.741 2651.66 424.741 2651.66 341.584 2829.19 341.584ZM2829.19 320.677 2651.66 320.677 2651.66 254.596 2829.19 254.596Z" fill="#2D2D2D" fill-rule="evenodd"/></g></svg>