<svg width="343" height="336" xmlns="http://www.w3.org/2000/svg" xmlns:xlink="http://www.w3.org/1999/xlink" xml:space="preserve" overflow="hidden" viewBox="0 0 343 336"><defs><clipPath id="clipEdit"><rect x="427" y="1515" width="343" height="336"/></clipPath></defs><g clip-path="url(#clipEdit)" transform="translate(-427 -1515)"><path d="M721.32 1829.99 448.455 1829.99 447.979 1563.18 640.41 1563.18 640.41 1542.22 584.626 1542.22 447.979 1542.22C436.392 1542.22 427 1551.42 427 1562.76L427 1851 721.225 1851C732.811 1850.97 742.203 1841.77 742.251 1830.41L742.251 1641.89 720.939 1641.89ZM562.503 1703.52 577.665 1718.37 599.073 1697.4 583.911 1682.56ZM754.791 1515 737.77 1531.71 727.042 1542.22 705.634 1563.18 694.906 1573.68 599.549 1667.06 614.71 1681.9 710.068 1588.53 720.844 1577.93 742.203 1557.02 752.931 1546.51 770.001 1529.8Z" fill="#2D2D2D" fill-rule="evenodd"/></g></svg>