<?xml version="1.0" encoding="UTF-8" standalone="no"?>
<svg
   version="1.1"
   id="Layer_1"
   x="0px"
   y="0px"
   width="1172.0607"
   viewBox="0 0 1172.0607 1242.131"
   enable-background="new 0 0 1172 1242"
   xml:space="preserve"
   height="1242.131"
   sodipodi:docname="ESGLogo.svg"
   inkscape:version="1.3 (0e150ed6c4, 2023-07-21)"
   xmlns:inkscape="http://www.inkscape.org/namespaces/inkscape"
   xmlns:sodipodi="http://sodipodi.sourceforge.net/DTD/sodipodi-0.dtd"
   xmlns="http://www.w3.org/2000/svg"
   xmlns:svg="http://www.w3.org/2000/svg"><sodipodi:namedview
   id="namedview1"
   pagecolor="#ffffff"
   bordercolor="#000000"
   borderopacity="0.25"
   inkscape:showpageshadow="2"
   inkscape:pageopacity="0.0"
   inkscape:pagecheckerboard="true"
   inkscape:deskcolor="#d1d1d1"
   inkscape:zoom="0.16342882"
   inkscape:cx="1141.1696"
   inkscape:cy="1266.6065"
   inkscape:window-width="1920"
   inkscape:window-height="1009"
   inkscape:window-x="-8"
   inkscape:window-y="-8"
   inkscape:window-maximized="1"
   inkscape:current-layer="Layer_1" /><defs
   id="defs7" />&#10;<path
   id="path1"
   d="m 558.55664,0 c -2.81469,0 -5.18612,1.204e-4 -7.83398,0.2578125 -4.42749,1.7438569 -8.69556,2.77876 -12.72657,4.7382813 C 506.819,20.15163 481.53457,42.569841 459.55664,68.90625 c -23.48394,28.141037 -40.85108,60.00661 -54.58789,93.80469 -21.28946,52.3806 -31.84985,107.1903 -34.27734,163.49609 -1.18241,27.42585 -0.50253,54.91858 2.71875,82.28906 2.82718,24.02234 6.84454,47.81571 12.92187,71.21485 9.54978,36.7688 23.23505,71.91696 42.07813,104.98828 18.55792,32.57095 41.38674,61.6238 70.54296,85.40234 14.30804,11.66892 13.57203,7.24439 13.54883,28.69336 -0.0132,12.16629 0.007,24.33292 -0.01,36.97852 -20.68173,-30.16574 -43.76322,-57.3862 -69.6836,-82.29883 -24.9682,-23.9975 -52.21304,-44.97815 -81.30664,-63.62891 -31.96482,-20.49145 -65.82464,-37.19461 -101.64062,-49.8125 -36.48031,-12.85193 -73.89337,-20.88094 -112.6836,-22.8789 -17.40814,-0.89655 -34.62177,-0.0563 -51.779292,1.84179 -29.105343,3.21979 -56.51278,12.1876 -82.47461,25.89844 C 6.046886,548.5263 2.7135644,552.92274 2.2753906,560.62891 1.9082328,567.08609 2.1352657,573.71225 0,580.46875 c 0,19.4895 -3.2185e-4,38.51129 0.2714844,57.85156 1.4924345,9.77176 1.3530204,19.37985 3.5019531,28.72461 7.4499615,32.39682 19.9979905,62.81766 35.9980465,91.84375 26.103255,47.35453 60.788206,87.77109 100.740236,123.89063 39.98348,36.14783 84.44566,65.50331 133.57226,87.67382 56.73791,25.60541 115.70911,40.79858 178.56446,38.17778 16.38779,-0.6834 32.51788,-2.5489 48.4707,-6.1543 10.28265,-2.3239 11.36945,-1.5769 11.37305,8.9296 0.0154,45.488 0.0112,90.9751 0.004,136.4629 -3e-4,1.9989 0.007,3.9985 -0.22656,5.9903 -0.4527,3.8615 -2.61545,5.9815 -6.4668,6.4101 -2.99018,0.3326 -5.99286,0.2265 -8.99023,0.2266 -152.9593,0.01 -305.9196,0 -458.878906,0 -2.332681,10e-5 -4.666693,-0.045 -6.998047,0.025 -5.468056,0.1665 -6.388067,0.9561 -6.400391,6.418 -0.05187,22.9924 -0.07251,45.9856 -0.01563,68.9785 0.006,2.4284 0.418772,4.5543 2.949219,6.0781 H 1167.0293 c 0.6664,0 1.3534,-0.1038 1.9961,0.02 2.5763,0.4944 3.0444,-0.6161 3.0351,-3.0468 -0.097,-25.3239 -0.06,-50.6482 -0.3632,-76.2754 -1.9619,-2.536 -4.4209,-2.164 -6.7012,-2.1797 -44.4744,-0.3076 -88.9446,0.1267 -133.4258,-0.8301 -40.97409,-0.8815 -81.98345,-0.1868 -122.97655,-0.1875 -100.48316,0 -200.96606,0.01 -301.44922,-0.012 -10.2587,0 -11.60498,-1.352 -11.63281,-11.4824 -0.0407,-14.8308 -0.0189,-29.6613 -0.01,-44.4922 0.007,-11.928 1.00724,-12.5937 12.3086,-8.9434 28.10562,9.0783 56.94705,13.6979 86.47461,13.9004 10.48501,0.072 20.95474,-0.1373 31.44922,-0.7734 22.50034,-1.364 44.73962,-4.4119 66.79687,-8.8614 66.9813,-13.5122 127.94872,-41.2416 184.24414,-79.3847 39.92064,-27.04828 75.70524,-58.84921 105.75584,-96.81643 23.1094,-29.19726 42.2017,-60.69193 55.3555,-95.64063 12.1467,-32.27328 16.6187,-65.71793 15.7383,-100.06641 -0.1342,-5.2388 -1.8655,-8.83614 -5.8652,-11.86718 -26.3622,-19.9776 -55.4235,-34.44186 -87.5313,-42.49414 -33.342,-8.36175 -67.16283,-11.20654 -101.54689,-9.34961 -27.55918,1.48822 -54.66559,5.36261 -81.46094,11.71875 -45.51981,10.7977 -88.52374,28.06765 -129.60547,50.34179 -41.74161,22.63202 -79.30675,50.85052 -113.09179,84.13672 -11.75308,11.57956 -22.58506,24.01658 -33.06641,36.75782 -1.18036,1.43473 -2.05573,3.36053 -4.23242,3.85546 -0.83179,-1.45719 -0.71069,-2.80285 -0.71094,-4.11328 -0.01,-51.65799 -0.002,-103.31668 -0.041,-154.97461 -0.004,-6.01248 2.05493,-10.44458 7.11328,-13.91797 10.46084,-7.18283 20.027,-15.54012 28.9414,-24.52734 28.24365,-28.47409 49.64994,-61.59714 66.28907,-97.99219 25.9285,-56.71372 38.66437,-116.55095 41.4375,-178.5039 1.25657,-28.07351 0.80517,-56.24887 -2.48438,-84.31836 -4.59647,-39.22158 -12.71414,-77.5572 -26.48242,-114.625 C 698.69138,143.1435 682.5415,111.11628 660.85547,82.035156 640.74451,55.066063 617.22128,31.733455 588.20117,14.330078 578.87771,8.7387851 569.37125,3.4782245 558.55664,0 Z m -5.08789,92.21875 c 0.75115,-0.01164 1.5058,0.361647 2.51172,1.142578 20.76037,16.116932 37.19577,35.924592 50.43555,58.503902 1.25937,2.14783 2.48254,4.3166 3.90234,6.79688 17.08271,30.39035 28.11689,62.61373 35.7793,96.14258 4.07242,17.81979 6.55556,35.86007 8.73632,53.95898 0.73352,6.087 1.04578,12.25317 1.09766,18.38672 0.0577,6.8234 1.1109,13.64962 0.89453,20.38867 -0.6225,19.38846 -1.22506,38.7731 -3.57226,58.10156 -3.53613,29.11718 -9.9202,57.51224 -19.37696,85.22657 -10.59012,31.03576 -25.2644,59.99825 -45.47265,85.91015 -8.4921,10.88895 -18.44858,20.51419 -29.11133,29.34961 -2.86224,2.3717 -5.21729,2.9232 -8.64844,0.20899 -21.57678,-17.06857 -37.9671,-38.3407 -51.55664,-62.0293 -10.04221,-17.50507 -18.11905,-35.90927 -24.69727,-54.91211 -7.33249,-21.18182 -12.59399,-42.93466 -16.44531,-65.05859 -5.29718,-30.42987 -6.66458,-61.07278 -5.89843,-91.85156 0.50001,-20.0875 2.7481,-40.04074 6.27929,-59.8125 4.8843,-27.34801 12.10187,-54.08293 22.6211,-79.83594 10.98295,-26.88841 24.79797,-52.11509 43.85937,-74.28516 7.94651,-9.24247 16.53012,-17.71098 26.17578,-25.160155 0.98862,-0.763482 1.73518,-1.160233 2.48633,-1.171875 z M 133.25586,597.99023 c 6.63096,0.14988 13.24353,0.64258 19.83984,1.20704 18.52041,1.58463 36.69548,5.49811 54.60352,10.58789 24.04403,6.83365 47.17464,16.05028 69.40625,27.35546 29.6759,15.09079 57.40499,33.2471 83.12109,54.47461 15.67578,12.93961 30.59542,26.69822 44.3125,41.63868 18.2042,19.82763 34.50852,41.19043 48.69532,64.55664 11.63834,20.03491 21.60758,40.44494 28.30078,62.32031 4.2782,13.98257 7.53763,28.17974 8.52539,42.83203 0.22256,3.30169 0.82495,6.56183 1.04687,9.88672 0.30426,4.55875 -1.6623,6.44147 -5.8125,7.58789 -11.4147,3.1532 -23.07103,4.88428 -34.8164,5.4668 -35.27283,1.74932 -69.51575,-4.32358 -102.8711,-15.30664 -36.79837,-12.11667 -71.19556,-29.30671 -103.3125,-51.00586 -17.60805,-11.89646 -34.51253,-24.63218 -50.33008,-38.92188 -26.14127,-23.61631 -49.66538,-49.47189 -69.26562,-78.72851 -20.01419,-29.87442 -35.63765,-61.84574 -43.240236,-97.26563 -2.438903,-11.3627 -4.045995,-22.87485 -3.519531,-34.59961 0.13816,-3.07684 0.828432,-4.78516 4.087891,-5.67383 10.274893,-2.80149 20.711926,-4.29394 31.277346,-5.5664 6.67138,-0.8035 13.32021,-0.99558 19.95117,-0.84571 z m 837.68555,147.08008 c 5.06623,-0.0794 10.13071,-0.0307 15.19726,0.0117 5.95166,0.0497 11.89661,0.91406 18.28123,1.55078 21.4727,1.83514 41.6277,6.94313 60.9102,15.5586 2.4688,1.10314 3.0063,2.64325 2.7011,5.07421 -1.1425,9.10363 -3.6142,17.89723 -6.539,26.5293 -6.6473,19.61863 -16.1413,37.89644 -27.5762,55.10352 -8.3559,12.57384 -17.7261,24.40083 -27.834,35.67187 -6.3426,7.07251 -12.91422,13.8946 -19.70505,20.50586 -15.84605,15.42693 -32.91817,29.38228 -51.03711,42.07227 -19.353,13.55437 -39.52199,25.72523 -60.78906,36.02929 -38.77419,18.78649 -79.21824,32.22889 -121.88672,39.04499 -21.9628,3.5085 -44.01271,4.7587 -66.07617,3.5585 -24.95524,-1.3572 -49.33553,-6.2323 -72.32227,-16.7519 -3.0769,-1.4081 -2.61834,-3.2595 -2.2539,-5.5605 2.4331,-15.36071 7.46271,-29.91329 13.82031,-44.03523 10.77697,-23.93821 25.09395,-45.72035 42.125,-65.53906 14.40465,-16.76243 30.06301,-32.38832 47.05664,-46.67969 19.3723,-16.29167 39.9128,-30.83644 61.71875,-43.60351 24.28642,-14.21935 49.70614,-26.03297 76.22656,-35.52344 23.3455,-8.35436 47.21884,-14.6529 71.65235,-18.67773 10.28557,-1.6944 20.71089,-2.60053 31.11719,-3.57618 5.07747,-0.47604 10.14665,-0.68422 15.21289,-0.76367 z"
   style="fill:#ffffff;fill-opacity:1"
   inkscape:export-filename="path1.svg"
   inkscape:export-xdpi="96"
   inkscape:export-ydpi="96" />&#10;&#10;&#10;&#10;&#10;&#10;&#10;</svg>
