<?xml version="1.0" encoding="UTF-8" standalone="no"?>
<svg
   width="38"
   height="48"
   xml:space="preserve"
   overflow="hidden"
   viewBox="0 0 38 48"
   version="1.1"
   id="svgExport"
   xmlns="http://www.w3.org/2000/svg"
   xmlns:svg="http://www.w3.org/2000/svg"><defs
     id="defs1"><clipPath
       id="clipExport"><rect
         x="439"
         y="272"
         width="38"
         height="48"
         id="rect1-8" /></clipPath></defs><g
     clip-path="url(#clipExport)"
     transform="translate(-439,-272)"
     id="g1"><path
       d="m 476.591,284.867 -12.05,-12.447 c -0.26,-0.268 -0.617,-0.419 -0.987,-0.42 h -23.151 c -0.773,0.003 -1.403,0.65 -1.403,1.447 v 45.106 c 0,0.797 0.63,1.443 1.403,1.447 h 35.194 c 0.773,0 1.403,-0.645 1.403,-1.44 0,-0.002 0,-0.005 0,-0.007 v -32.666 c 0,-0.382 -0.149,-0.749 -0.409,-1.02 z m -11.641,-7.927 7.269,7.5 h -7.269 z m -23.15,40.167 v -42.214 h 20.351 v 12.44 H 474.2 v 29.774 z m 10.75,-6.734 10.114,-10.38 v 5.614 c -0.007,0.366 0.136,0.718 0.396,0.973 0.52,0.537 1.371,0.539 1.89,0.005 0.254,-0.26 0.397,-0.612 0.397,-0.978 v -10.32 h -10.049 c -0.741,-0.053 -1.384,0.52 -1.436,1.28 -0.052,0.761 0.507,1.42 1.247,1.473 0.065,0.005 0.124,0.005 0.189,0 h 5.463 l -10.108,10.38 z"
       fill-rule="evenodd"
       id="path1" /></g></svg>
