<svg width="271" height="266" xmlns="http://www.w3.org/2000/svg" xmlns:xlink="http://www.w3.org/1999/xlink" xml:space="preserve" overflow="hidden" viewBox="0 0 271 266"><g transform="translate(-1798 -1519)"><path d="M2050.75 1536.94 2050.75 1569.81 1816.25 1569.81 1816.25 1536.94 2050.75 1536.94M2067.5 1520.5 1799.5 1520.5 1799.5 1586.25 2067.5 1586.25 2067.5 1520.5ZM1961.42 1636.04 1961.42 1668.91 1816.25 1668.91 1816.25 1636.04 1961.42 1636.04M1978.17 1619.6 1799.5 1619.6 1799.5 1685.35 1978.17 1685.35 1978.17 1619.53ZM1872.08 1734.19 1872.08 1767.06 1816.25 1767.06 1816.25 1734.19 1872.08 1734.19M1888.83 1717.75 1799.5 1717.75 1799.5 1783.5 1888.83 1783.5 1888.83 1717.75Z" fill="#2D2D2D" fill-rule="evenodd"/></g></svg>