<svg width="161" height="161" xmlns="http://www.w3.org/2000/svg" xmlns:xlink="http://www.w3.org/1999/xlink" xml:space="preserve" viewBox="0 0 161 161" overflow="hidden"><defs><clipPath id="clipFilterRemove"><rect x="1490" y="517" width="161" height="161"/></clipPath></defs><g clip-path="url(#clipFilterRemove)" transform="translate(-1490 -517)"><path d="M1490 517 1490 557.25 1540.31 587.438 1544.22 622.656 1545.34 632.719 1550.37 678 1590.61 678 1595.64 632.719 1596.76 622.656 1600.67 587.438 1650.98 557.25 1650.98 517ZM1500.06 551.548 1500.06 526.951 1640.92 526.951 1640.92 551.548 1639.82 552.219 1501.2 552.219ZM1550.3 586.32 1549.76 581.378 1545.47 578.806 1517.95 562.281 1623.03 562.281 1595.51 578.806 1591.33 581.378 1590.77 586.32 1586.72 622.656 1554.35 622.656ZM1555.55 632.719 1585.51 632.719 1581.6 667.938 1559.38 667.938ZM1643.76 670.487 1632.58 659.485 1621.4 670.665 1614.31 663.354 1625.27 652.173 1614.09 641.104 1621.33 633.926 1632.51 644.928 1643.69 633.747 1650.87 640.97 1639.82 652.15 1651 663.331Z" fill-rule="evenodd"/></g></svg>