<svg width="474" height="505" xmlns="http://www.w3.org/2000/svg" xmlns:xlink="http://www.w3.org/1999/xlink" xml:space="preserve" overflow="hidden" viewBox="0 0 474 505"><defs><clipPath id="clipHPage"><rect x="262" y="1942" width="474" height="505"/></clipPath></defs><g clip-path="url(#clipHPage)" transform="translate(-262 -1942)"><path d="M499.33 2105.7 513.022 2144.91 519.606 2164.62 539.356 2165.46 578.856 2167.22 548.045 2193.24 532.641 2206.28 537.908 2226.48 548.441 2266.81 515.524 2243.6 499.132 2232.02 482.739 2243.6 449.822 2266.81 460.356 2226.48 465.688 2206.28 450.217 2193.24 419.473 2167.22 458.974 2165.46 478.724 2164.62 485.308 2144.91 499 2105.7M499 1942C368.123 1942 262 2055.05 262 2194.5 262 2333.95 368.123 2447 499 2447 629.877 2447 736 2333.95 736 2194.5 736 2055.05 629.877 1942 499 1942ZM499 2415.44C384.449 2415.44 291.625 2316.52 291.625 2194.5 291.625 2072.48 384.449 1973.56 499 1973.56 613.55 1973.56 706.376 2072.48 706.376 2194.5 706.244 2316.47 613.485 2415.32 499 2415.44ZM499 2037.39C494.195 2037.39 489.454 2042.58 485.834 2053.1L457.591 2133.97 376.682 2137.55C355.813 2138.46 352.061 2150.52 368.519 2164.41L431.982 2218 410.455 2300.9C406.701 2315.28 409.796 2323.42 417.498 2323.42 422.699 2322.94 427.703 2320.87 431.851 2317.45L499.33 2269.69 566.809 2317.45C570.956 2320.85 575.959 2322.91 581.16 2323.42 588.862 2323.42 592.023 2315.35 588.205 2300.9L566.414 2217.79 629.877 2164.2C646.269 2150.17 642.649 2138.25 621.714 2137.34L540.936 2133.97 512.693 2053.1C509.073 2042.65 504.267 2037.39 499.526 2037.39Z" fill="#FFFFFF" fill-rule="evenodd"/></g></svg>