<svg id="svgOGHG" width="665" height="656" viewBox="0 0 665 656" xmlns="http://www.w3.org/2000/svg" xmlns:xlink="http://www.w3.org/1999/xlink" xml:space="preserve" overflow="hidden"><defs><clipPath id="clip0"><rect x="1471" y="202" width="665" height="656"/></clipPath></defs><g clip-path="url(#clip0)" transform="translate(-1471 -202)"><path d="M1500.98 812.807 1471.48 812.807 1471.48 857.001 2135.14 857.001 2135.14 812.807 2105.83 812.807 2105.83 447.25 2136 447.25 2136 370.047 1801.22 202 1471 368.319 1471 447.25 1500.98 447.25ZM1547.23 447.523 1687.21 447.523 1687.21 812.807 1547.23 812.807ZM1873.44 447.523 1873.44 812.807 1733.46 812.807 1733.46 447.25ZM2089.75 403.329 1515.92 403.329 1515.92 396.146 1801.41 252.287 2089.94 397.055ZM2059.58 812.534 1919.69 812.534 1919.69 447.25 2059.58 447.25Z" fill="#FFFFFF" fill-rule="evenodd"/></g></svg>