<?xml version="1.0" encoding="UTF-8" standalone="no"?>
<!-- Created with Inkscape (http://www.inkscape.org/) -->

<svg
   width="12.435417mm"
   height="11.641667mm"
   viewBox="0 0 12.435417 11.641667"
   version="1.1"
   id="svg1"
   xmlns:inkscape="http://www.inkscape.org/namespaces/inkscape"
   xmlns:sodipodi="http://sodipodi.sourceforge.net/DTD/sodipodi-0.dtd"
   xmlns="http://www.w3.org/2000/svg"
   xmlns:svg="http://www.w3.org/2000/svg">
  <sodipodi:namedview
     id="namedview1"
     pagecolor="#ffffff"
     bordercolor="#000000"
     borderopacity="0.25"
     inkscape:showpageshadow="2"
     inkscape:pageopacity="0.0"
     inkscape:pagecheckerboard="true"
     inkscape:deskcolor="#d1d1d1"
     inkscape:document-units="mm" />
  <defs
     id="defs1">
    <clipPath
       id="clipPCF">
      <rect
         x="307"
         y="151"
         width="47"
         height="44"
         id="rect1" />
    </clipPath>
  </defs>
  <g
     inkscape:label="圖層 1"
     inkscape:groupmode="layer"
     id="layer1"
     transform="translate(-0.67038728,-0.74558685)">
    <g
       clip-path="url(#clipPCF)"
       transform="matrix(0.26458333,0,0,0.26458333,-80.556695,-39.206496)"
       id="g1"
       inkscape:export-filename="PCF.svg"
       inkscape:export-xdpi="96"
       inkscape:export-ydpi="96">
      <path
         d="m 330.392,174.53 0.059,0.073 c -0.052,0.063 -0.091,0.131 -0.124,0.205 -0.033,-0.087 -0.078,-0.168 -0.137,-0.238 v -0.04 z m 18.612,0.185 -0.784,-1.031 0.033,1.362 z m -37.393,0 0.489,0.212 v -0.846 z m 18.716,17.8 c -0.105,0.309 -0.385,0.522 -0.705,0.535 l 0.705,0.317 0.705,-0.317 c -0.137,-0.005 -0.268,-0.049 -0.385,-0.125 -0.15,-0.098 -0.261,-0.242 -0.32,-0.41 z m -16.627,-6.61 0.098,0.047 c -0.039,-0.047 -0.071,-0.098 -0.098,-0.152 z m 33.26,0 v -0.112 c -0.026,0.054 -0.059,0.106 -0.098,0.152 z m -16.653,-11.52 -0.085,0.112 h 0.17 z m -0.143,0.112 v 0.04 z m 0.228,0 0.059,0.073 c 0.013,-0.026 0.026,-0.05 0.046,-0.073 z m 23.242,1.256 -5.309,2.36 0.209,8.308 c 0,0.314 -0.183,0.599 -0.47,0.727 l -17.417,7.786 c -0.105,0.042 -0.209,0.064 -0.32,0.066 -0.105,-0.002 -0.216,-0.024 -0.314,-0.066 l -17.416,-7.786 c -0.288,-0.128 -0.47,-0.413 -0.47,-0.727 v -8.394 l -5.127,-2.274 7.007,-9.161 -6.889,-7.495 15.366,-8.097 8.032,8.791 8.144,-8.791 15.34,8.024 -7.184,7.846 z m -19.134,-16.068 10.24,5.195 4.434,-4.825 -10.142,-5.288 z m -18.168,5.327 10.246,-5.195 -4.571,-4.891 -10.135,5.288 z m -1.169,11.289 7.425,3.305 3.827,-5.063 -10.945,-4.897 -0.307,0.403 -3.095,4.045 -0.484,0.661 0.49,0.211 z m 13.61,0.113 -5.114,6.788 -8.489,-3.774 v 5.525 l 13.609,6.088 z m 13.766,-9.016 -12.232,-5.889 -1.685,0.82 -10.272,5.215 11.951,5.34 z m 2.906,12.01 -8.542,3.794 -5.068,-6.729 v 14.542 l 13.617,-6.088 z m 3.533,-4.693 -0.784,-1.031 -2.749,-3.589 -0.346,-0.463 -0.131,-0.165 -10.906,4.944 0.098,0.126 3.814,5.056 7.471,-3.305 2.782,-1.236 z"
         fill-rule="evenodd"
         id="path1" />
    </g>
  </g>
</svg>
