<svg width="591" height="616" xmlns="http://www.w3.org/2000/svg" xmlns:xlink="http://www.w3.org/1999/xlink" xml:space="preserve" overflow="hidden" viewBox="0 0 591 616"><g transform="translate(-2434 -167)"><path d="M2729.5 168.5C2567.15 168.5 2435.5 305.728 2435.5 475.001 2435.5 644.274 2567.15 781.5 2729.5 781.5 2891.85 781.5 3023.5 644.274 3023.5 475.001 3023.5 305.728 2891.85 168.5 2729.5 168.5ZM2729.5 743.188C2587.4 743.188 2472.25 623.116 2472.25 475.001 2472.25 326.884 2587.4 206.813 2729.5 206.813 2871.6 206.813 2986.75 326.884 2986.75 475.001 2986.59 623.057 2871.52 743.043 2729.5 743.188ZM2747.88 326.008 2711.13 326.008 2711.13 534.512 2747.88 534.512ZM2729.5 576.06C2714.23 576.06 2701.9 588.942 2701.9 604.837 2701.9 620.732 2714.23 633.614 2729.5 633.614 2744.77 633.614 2757.1 620.732 2757.1 604.837 2757.1 604.811 2757.1 604.777 2757.1 604.752 2757.02 588.908 2744.69 576.094 2729.5 576.145Z" fill="#FFFFFF" fill-rule="evenodd"/></g></svg>