<svg width="715" height="792" xmlns="http://www.w3.org/2000/svg" xmlns:xlink="http://www.w3.org/1999/xlink" xml:space="preserve" overflow="hidden" viewBox="0 0 715 792"><defs><clipPath id="clipProfile"><rect x="351" y="1059" width="715" height="792"/></clipPath></defs><g clip-path="url(#clipProfile)" transform="translate(-351 -1059)"><path d="M708.468 1059C511.066 1058.99 351 1236.27 351 1454.97 351 1558.37 387.44 1657.67 452.68 1731.64L467.474 1749.68 468.566 1748.58C604.702 1885.14 812.233 1885.14 948.367 1748.58 948.764 1748.92 949.063 1749.28 949.36 1749.68L962.467 1733.73C1101.38 1578.38 1100.39 1327.66 960.184 1173.72 893.159 1100.21 802.699 1058.98 708.468 1059ZM708.468 1801.49C634.093 1801.6 562.202 1772.22 505.704 1718.66 559.225 1683.35 631.71 1663.11 708.468 1663.11 785.223 1663.11 857.413 1683.35 911.23 1718.66 854.731 1772.22 782.841 1801.6 708.468 1801.49ZM943.899 1682.91C882.334 1638.91 797.636 1613.61 708.468 1613.61 619.299 1613.61 534.699 1639.02 473.034 1682.91 359.341 1538.87 372.547 1319.97 502.526 1193.98 632.605 1068 830.204 1082.63 943.899 1226.67 1047.07 1357.29 1047.07 1552.29 943.899 1682.91ZM708.468 1275.92C643.229 1275.85 590.404 1334.36 590.305 1406.59 590.204 1478.83 643.031 1537.43 708.268 1537.49 773.506 1537.56 826.333 1479.05 826.432 1406.81 826.432 1406.74 826.432 1406.67 826.432 1406.59 825.935 1334.81 773.307 1276.91 708.468 1276.91ZM708.468 1487.88C667.954 1487.95 635.088 1451.6 634.989 1406.7 634.888 1361.81 667.754 1325.37 708.268 1325.31 748.781 1325.24 781.649 1361.59 781.748 1406.48 781.748 1406.52 781.748 1406.56 781.748 1406.59 782.045 1451.48 749.378 1488.13 708.864 1488.43 708.765 1488.43 708.565 1488.43 708.468 1488.43Z" fill="#FFFFFF" fill-rule="evenodd"/></g></svg>