<svg width="346" height="298" xmlns="http://www.w3.org/2000/svg" xmlns:xlink="http://www.w3.org/1999/xlink" xml:space="preserve" overflow="hidden" viewBox="0 0 346 298"><defs><clipPath id="clipRefresh"><rect x="3117" y="233" width="346" height="298"/></clipPath></defs><g clip-path="url(#clipRefresh)" transform="translate(-3117 -233)"><path d="M3183.53 300.691 3178.1 306.319 3178.1 381.95C3178.07 464.239 3241.83 530.97 3320.5 531 3399.17 531.025 3462.97 464.34 3463 382.05 3463.02 299.761 3399.27 233.025 3320.6 233 3320.5 233 3320.41 233 3320.31 233L3320.31 255.815C3387.01 255.705 3441.18 312.179 3441.28 381.95 3441.39 451.721 3387.4 508.376 3320.69 508.487 3253.98 508.598 3199.82 452.123 3199.72 382.352 3199.72 382.217 3199.72 382.086 3199.72 381.95L3199.72 306.319 3194.34 300.691 3199.72 306.319 3199.72 294.158 3178.1 294.158 3178.1 306.319ZM3199.72 294.158 3199.72 306.319 3242.38 350.944C3246.45 355.512 3253.29 355.763 3257.66 351.507 3262.03 347.25 3262.27 340.094 3258.2 335.526 3258.03 335.335 3257.85 335.144 3257.66 334.963L3188.91 263.051 3120.16 334.963C3115.94 339.39 3115.95 346.557 3120.18 350.969 3124.41 355.381 3131.26 355.371 3135.48 350.944L3178.1 306.319 3178.1 294.158Z" fill="#2D2D2D" fill-rule="evenodd"/></g></svg>