<?xml version="1.0" encoding="UTF-8" standalone="no"?>
<!-- Created with Inkscape (http://www.inkscape.org/) -->

<svg
   width="36"
   height="36"
   viewBox="0 0 9.5249998 9.5249999"
   version="1.1"
   id="svg1"
   xml:space="preserve"
   xmlns:inkscape="http://www.inkscape.org/namespaces/inkscape"
   xmlns:sodipodi="http://sodipodi.sourceforge.net/DTD/sodipodi-0.dtd"
   xmlns="http://www.w3.org/2000/svg"
   xmlns:svg="http://www.w3.org/2000/svg"><sodipodi:namedview
     id="namedview1"
     pagecolor="#ffffff"
     bordercolor="#000000"
     borderopacity="0.25"
     inkscape:showpageshadow="2"
     inkscape:pageopacity="0.0"
     inkscape:pagecheckerboard="true"
     inkscape:deskcolor="#d1d1d1"
     inkscape:document-units="mm" /><defs
     id="defs1" /><g
     inkscape:label="圖層 1"
     inkscape:groupmode="layer"
     id="layer1"
     transform="translate(-0.0145979,-0.02276192)"><g
       transform="matrix(0.26458333,0,0,0.26458333,-87.297901,-85.702237)"
       id="g1"><path
         d="m 366,358.38 c -12.06,-12.24 -12.06,-12.24 -12.06,-12.24 1.98,-2.34 3.24,-5.4 3.24,-8.64 0,-7.56 -6.12,-13.5 -13.5,-13.5 -7.56,0 -13.68,5.94 -13.68,13.5 0,7.38 6.12,13.5 13.68,13.5 3.24,0 6.3,-1.26 8.64,-3.24 C 364.38,360 364.38,360 364.38,360 Z M 332.34,337.5 c 0,-6.3 5.04,-11.34 11.34,-11.34 6.12,0 11.16,5.04 11.16,11.34 0,6.12 -5.04,11.34 -11.16,11.34 -6.3,0 -11.34,-5.22 -11.34,-11.34 z"
         fill-rule="evenodd"
         id="path1" /></g></g></svg>
