<svg id="svgSetting" width="483" height="446" viewBox="0 0 483 446" xmlns="http://www.w3.org/2000/svg" xmlns:xlink="http://www.w3.org/1999/xlink" xml:space="preserve" overflow="hidden"><defs><clipPath id="clipSetting"><rect x="3322" y="267" width="483" height="446"/></clipPath></defs><g clip-path="url(#clipSetting)" transform="translate(-3322 -267)"><path d="M3634.74 267C3629.28 266.988 3624.07 269.083 3620.27 272.813L3587.78 304.756C3571.23 302.539 3554.43 302.539 3537.88 304.756L3505.4 272.813C3501.6 269.083 3496.38 266.988 3490.93 267 3487.41 266.994 3483.94 267.875 3480.88 269.555L3403.65 312.102C3395.69 316.504 3391.88 325.506 3394.41 333.951L3407.27 376.88C3397.03 389.536 3388.57 403.412 3382.08 418.15L3337.2 428.882C3328.27 431.022 3322 438.682 3322 447.473L3322 532.565C3322.03 541.331 3328.29 548.958 3337.2 551.091L3382.35 561.888C3388.83 576.607 3397.3 590.458 3407.54 603.094L3394.67 646.024C3392.11 654.488 3395.92 663.528 3403.92 667.936L3481.15 710.418C3489.13 714.833 3499.25 713.485 3505.66 707.16L3538.15 675.218C3554.69 677.519 3571.51 677.519 3588.05 675.218L3620.54 707.16C3626.95 713.485 3637.07 714.833 3645.05 710.418L3722.02 668.255C3730.01 663.847 3733.82 654.808 3731.26 646.343L3718.4 603.413C3728.63 590.777 3737.1 576.927 3743.58 562.208L3788.73 551.412C3797.67 549.303 3803.96 541.669 3804 532.885L3804 447.473C3803.99 438.662 3797.69 430.996 3788.73 428.882L3743.58 418.15C3737.1 403.412 3728.63 389.536 3718.4 376.88L3731.26 333.951C3733.79 325.506 3729.98 316.504 3722.02 312.102L3644.79 269.555C3641.73 267.875 3638.26 266.994 3634.74 267ZM3636.55 298.176 3700.11 333.248 3689.46 368.959 3685.31 382.885 3694.42 394.321C3703.08 405.028 3710.26 416.751 3715.79 429.201L3721.61 442.489 3736.28 446.003 3773.86 454.946 3773.86 525.219 3736.28 534.099 3721.61 537.612 3715.79 550.9C3710.25 563.319 3703.1 575.017 3694.49 585.717L3685.31 597.216 3689.46 611.079 3700.11 646.855 3636.55 681.862 3609.75 655.159 3599.24 644.81 3584.23 646.663C3570.22 648.624 3555.98 648.624 3541.97 646.663L3526.96 644.81 3516.45 655.159 3489.66 681.862 3426.09 646.855 3436.74 611.079 3440.89 597.216 3431.72 585.717C3423.09 575.004 3415.93 563.281 3410.42 550.837L3404.59 537.548 3389.92 534.099 3352.41 525.155 3352.41 454.883 3389.92 445.939 3404.59 442.426 3410.42 429.138C3415.94 416.7 3423.1 404.977 3431.72 394.256L3440.89 382.822 3436.74 368.896 3426.09 333.183 3489.66 298.176 3516.78 324.815 3527.23 335.165 3542.24 333.375C3556.25 331.414 3570.49 331.414 3584.5 333.375L3599.51 335.165 3610.02 324.815ZM3562.87 561.888C3521.25 561.888 3487.51 529.71 3487.51 490.018 3487.51 450.328 3521.25 418.15 3562.87 418.15 3604.48 418.15 3638.22 450.328 3638.22 490.018 3638.15 529.704 3604.42 561.85 3562.8 561.888ZM3562.87 446.898C3537.9 446.898 3517.65 466.203 3517.65 490.018 3517.65 513.835 3537.9 533.14 3562.87 533.14 3587.84 533.14 3608.08 513.835 3608.08 490.018 3608.04 466.19 3587.78 446.898 3562.8 446.898Z" fill="#FFFFFF" fill-rule="evenodd"/></g></svg>