<?xml version="1.0" encoding="UTF-8" standalone="no"?>
<!-- Created with Inkscape (http://www.inkscape.org/) -->

<svg
   width="11.112484mm"
   height="12.435428mm"
   viewBox="0 0 11.112484 12.435428"
   version="1.1"
   id="svgSPM"
   xmlns:inkscape="http://www.inkscape.org/namespaces/inkscape"
   xmlns:sodipodi="http://sodipodi.sourceforge.net/DTD/sodipodi-0.dtd"
   xmlns="http://www.w3.org/2000/svg"
   xmlns:svg="http://www.w3.org/2000/svg">
  <sodipodi:namedview
     id="namedview1"
     pagecolor="#ffffff"
     bordercolor="#000000"
     borderopacity="0.25"
     inkscape:showpageshadow="2"
     inkscape:pageopacity="0.0"
     inkscape:pagecheckerboard="true"
     inkscape:deskcolor="#d1d1d1"
     inkscape:document-units="mm" />
  <defs
     id="defs1" />
  <g
     inkscape:label="圖層 1"
     inkscape:groupmode="layer"
     id="layer1"
     transform="translate(-1.6848669,-1.1757054)">
    <g
       transform="matrix(0.26458333,0,0,0.26458333,-244.37763,-104.12846)"
       id="g5">
      <path
         d="m 971.952,436.224 c -0.185,-1.012 -0.438,-2.011 -0.76,-2.987 l -0.052,-0.126 -0.098,-0.092 c -0.557,-0.514 -0.57,-0.528 -12.177,0.659 -0.046,-1.218 -0.976,-2.217 -2.181,-2.341 l -11.888,-1.398 -1.84,-1.437 L 930,425 v 16.269 l 1.042,0.31 c 3.274,0.976 8.514,2.585 9.975,3.092 0.542,0.277 1.153,0.382 1.755,0.304 h 1.029 l 3.989,-0.066 5.783,-0.132 h 0.216 l 16.467,-5.566 c 1.221,-0.436 1.942,-1.706 1.696,-2.987 z m -39.05,-7.36 8.737,2.361 2.024,1.576 12.294,1.438 v 1.886 h -13.1 v 2.948 h 13.166 c 1.383,-0.011 2.556,-1.026 2.777,-2.401 3.471,-0.356 7.951,-0.817 10.074,-1.002 0.045,0.237 0.104,0.514 0.17,0.844 l -15.759,5.335 c -3.93,0.092 -9.91,0.224 -11.037,0.204 -1.074,-0.474 -3.353,-1.167 -9.346,-2.961 z"
         fill-rule="evenodd"
         id="path1" />
      <path
         d="m 951.5,410 c 3.59,0 6.5,-2.686 6.5,-6 0,-3.314 -2.91,-6 -6.5,-6 -3.59,0 -6.5,2.686 -6.5,6 0.003,3.312 2.912,5.996 6.5,6 z m -3.692,-6 c 0,-1.882 1.653,-3.408 3.692,-3.408 2.039,0 3.692,1.526 3.692,3.408 0,1.882 -1.653,3.408 -3.692,3.408 -2.038,-0.004 -3.688,-1.527 -3.692,-3.408 z"
         fill-rule="evenodd"
         id="path2" />
      <path
         d="m 939.507,413 c 3.038,-0.004 5.497,-2.244 5.493,-5.006 -0.003,-2.762 -2.469,-4.998 -5.507,-4.994 -3.035,0.004 -5.493,2.241 -5.493,5 0.004,2.762 2.468,5 5.507,5 z m -2.71,-5 c 0,-1.36 1.214,-2.463 2.71,-2.463 1.496,0 2.709,1.103 2.709,2.463 0,1.36 -1.213,2.463 -2.709,2.463 -1.486,-0.013 -2.682,-1.112 -2.682,-2.463 z"
         fill-rule="evenodd"
         id="path3" />
      <path
         d="m 963,413 c 2.762,0 5,-2.238 5,-5 0,-2.762 -2.238,-5 -5,-5 -2.762,0 -5,2.238 -5,5 0.003,2.76 2.24,4.996 5,5 z m 0,-7.438 c 1.36,0 2.463,1.102 2.463,2.463 0,1.36 -1.103,2.463 -2.463,2.463 -1.36,0 -2.463,-1.103 -2.463,-2.463 0,-1.361 1.103,-2.463 2.463,-2.463 z"
         fill-rule="evenodd"
         id="path4" />
      <path
         d="m 961.376,414.134 c -0.629,-0.001 -1.257,0.041 -1.88,0.125 v -0.27 l -0.716,-0.364 c -4.602,-2.145 -9.939,-2.167 -14.56,-0.062 l -0.735,0.364 v 0.326 c -0.617,-0.079 -1.239,-0.119 -1.861,-0.119 -2.038,-0.035 -4.056,0.395 -5.895,1.255 L 935,415.753 V 424 h 33 v -8.228 l -0.735,-0.358 c -1.835,-0.871 -3.851,-1.31 -5.889,-1.28 z m -23.716,7.274 v -3.985 c 1.864,-0.66 3.868,-0.844 5.825,-0.534 v 4.519 z m 8.504,0 v -5.843 c 3.44,-1.289 7.245,-1.272 10.672,0.05 v 5.793 z m 13.332,0 v -4.519 c 1.963,-0.311 3.974,-0.126 5.844,0.54 v 3.979 z"
         fill-rule="evenodd"
         id="path5" />
    </g>
  </g>
</svg>
