<svg width="415" height="324" xmlns="http://www.w3.org/2000/svg" xmlns:xlink="http://www.w3.org/1999/xlink" xml:space="preserve" overflow="hidden" viewBox="0 0 415 324"><defs><clipPath id="clipUpload"><rect x="2419" y="914" width="415" height="324"/></clipPath></defs><g clip-path="url(#clipUpload)" transform="translate(-2419 -914)"><path d="M2613.53 995 2613.53 995 2613.53 1019.43 2545.69 1072.31C2540.81 1076.4 2532.6 1076.63 2527.36 1072.81 2522.12 1069 2521.83 1062.59 2526.71 1058.5 2526.92 1058.33 2527.14 1058.16 2527.36 1058L2626.5 980.6 2725.64 1058C2730.05 1062.41 2729.05 1068.77 2723.4 1072.21 2718.77 1075.04 2712.29 1075.08 2707.6 1072.31L2639.47 1019.43 2639.47 1136.75 2613.53 1136.75 2613.53 995ZM2613.53 1136.75 2444.94 1136.75 2444.94 934.25 2808.06 934.25 2808.06 1136.75 2639.47 1136.75 2639.47 1157 2834 1157 2834 934.25C2834.04 923.09 2822.47 914.027 2808.18 914 2808.14 914 2808.1 914 2808.06 914L2444.94 914C2430.61 914 2419 923.068 2419 934.25L2419 1157 2639.47 1157 2639.47 1136.75ZM2613.53 1238 2639.47 1238 2639.47 1157 2613.53 1157Z" fill="#2D2D2D" fill-rule="evenodd"/></g></svg>