<?xml version="1.0" encoding="UTF-8" standalone="no"?>
<svg
   width="47"
   height="44"
   xml:space="preserve"
   overflow="hidden"
   viewBox="0 0 47 44"
   version="1.1"
   id="svgViewOff"
   sodipodi:docname="Export.svg"
   xmlns:inkscape="http://www.inkscape.org/namespaces/inkscape"
   xmlns:sodipodi="http://sodipodi.sourceforge.net/DTD/sodipodi-0.dtd"
   xmlns="http://www.w3.org/2000/svg"
   xmlns:svg="http://www.w3.org/2000/svg"><sodipodi:namedview
     id="namedview1"
     pagecolor="#ffffff"
     bordercolor="#000000"
     borderopacity="0.25"
     inkscape:showpageshadow="2"
     inkscape:pageopacity="0.0"
     inkscape:pagecheckerboard="true"
     inkscape:deskcolor="#d1d1d1" /><defs
     id="defs1"><clipPath
       id="clipView-4"><rect
         x="931"
         y="522"
         width="47"
         height="44"
         id="rect1-85" /></clipPath></defs><g
     clip-path="url(#clipView-4)"
     transform="translate(-931,-522)"
     id="g1"><path
       d="m 978,544.01 -12.403,-12.483 c -5.969,-6.001 -15.587,-6.166 -21.757,-0.375 l -9.139,-9.152 -2.089,2.096 9.081,9.132 -10.693,10.782 12.403,12.483 c 5.976,6.003 15.604,6.16 21.77,0.355 l 9.093,9.152 2.083,-2.096 -9.074,-9.139 z m -23.5,-14.165 c 3.381,-0.004 6.622,1.354 9.002,3.771 l 10.366,10.394 -8.649,8.659 -4.942,-4.973 c 2.006,-3.227 1.034,-7.48 -2.172,-9.499 -2.232,-1.406 -5.068,-1.399 -7.293,0.018 l -4.922,-4.96 c 2.338,-2.192 5.415,-3.411 8.61,-3.41 z m -3.603,12.627 5.13,5.165 c -0.482,0.208 -1.002,0.316 -1.527,0.315 -2.163,0 -3.917,-1.765 -3.917,-3.942 0,-0.529 0.106,-1.052 0.314,-1.538 z m 2.082,-2.095 c 1.993,-0.846 4.29,0.095 5.13,2.101 0.203,0.485 0.308,1.006 0.308,1.532 0.003,0.526 -0.101,1.047 -0.307,1.531 z m 1.521,17.798 c -3.376,0.008 -6.615,-1.342 -8.995,-3.751 l -10.347,-10.414 8.63,-8.686 4.941,4.974 c -2.046,3.201 -1.127,7.465 2.054,9.525 2.259,1.463 5.161,1.461 7.418,-0.005 l 4.929,4.954 c -2.345,2.194 -5.429,3.41 -8.63,3.403 z"
       fill-rule="evenodd"
       id="path1" /></g></svg>
