<svg width="354" height="256" xmlns="http://www.w3.org/2000/svg" xmlns:xlink="http://www.w3.org/1999/xlink" xml:space="preserve" overflow="hidden" viewBox="0 0 354 256"><defs><clipPath id="clipView"><rect x="1122" y="867" width="354" height="256"/></clipPath></defs><g clip-path="url(#clipView)" transform="translate(-1122 -867)"><path d="M1382.51 901.566C1336.4 855.478 1261.6 855.478 1215.49 901.566L1122 995 1215.49 1088.44C1261.6 1134.52 1336.4 1134.52 1382.51 1088.44L1476 995ZM1366.86 1073.09C1329.41 1110.53 1268.69 1110.54 1231.24 1073.13 1231.19 1073.12 1231.19 1073.1 1231.19 1073.09L1153.2 995.148 1231.19 917.352C1268.64 879.914 1329.36 879.899 1366.81 917.317 1366.86 917.327 1366.86 917.341 1366.86 917.352L1444.85 995.295ZM1299 943.513C1270.46 943.513 1247.33 966.63 1247.33 995.148 1247.33 1023.67 1270.46 1046.78 1299 1046.78 1327.54 1046.78 1350.67 1023.67 1350.67 995.148 1350.67 966.63 1327.54 943.513 1299 943.513ZM1299 1024.65C1282.71 1024.65 1269.48 1011.44 1269.48 995.148 1269.48 978.851 1282.71 965.642 1299 965.642 1315.29 965.642 1328.53 978.851 1328.53 995.148 1328.53 1011.44 1315.29 1024.65 1299 1024.65Z" fill="#2D2D2D" fill-rule="evenodd"/></g></svg>